<svg width="200" height="200" viewBox="0 0 200 200" fill="none" xmlns="http://www.w3.org/2000/svg">
<path d="M54.1862 176.667H46.6667V183.333H76.6667V176.667H61.1475L69.1471 150H76.6667V143.333H13.3333C9.65169 143.333 6.66667 140.348 6.66667 136.667V130H76.6667V123.333H6.66667V30.0001C6.66667 26.3184 9.65169 23.3334 13.3333 23.3334H153.333C157.015 23.3334 160 26.3184 160 30.0001V56.6667H166.667V30.0001C166.667 22.6368 160.697 16.6667 153.333 16.6667H13.3333C5.97005 16.6667 0 22.6368 0 30.0001V136.667C0 144.03 5.97005 150 13.3333 150H62.1859L54.1862 176.667Z" fill="#E96111"/>
<path d="M146.667 49.9999V56.6666H153.333V46.6666C153.333 44.8258 151.841 43.3333 150 43.3333H16.6667C14.8259 43.3333 13.3334 44.8258 13.3334 46.6666V86.6666C13.3334 88.5074 14.8259 89.9999 16.6667 89.9999H76.6667V83.3333H20V49.9999H146.667Z" fill="#E96111"/>
<path d="M56.6667 116.667V100C56.6667 98.1593 55.1742 96.6667 53.3334 96.6667H16.6667C14.8259 96.6667 13.3334 98.1593 13.3334 100V116.667H20V103.333H50V116.667H56.6667Z" fill="#E96111"/>
<path d="M63.3334 100V116.667H70V103.333H76.6667V96.6667H66.6667C64.8259 96.6667 63.3334 98.1593 63.3334 100Z" fill="#E96111"/>
<path d="M13.3334 30H20V36.6667H13.3334V30Z" fill="#E96111"/>
<path d="M26.6666 30H33.3333V36.6667H26.6666V30Z" fill="#E96111"/>
<path d="M40 30H46.6667V36.6667H40V30Z" fill="#E96111"/>
<path d="M176.667 89.9999V73.3333C176.667 67.8108 172.189 63.3333 166.667 63.3333H93.3334C87.8109 63.3333 83.3334 67.8108 83.3334 73.3333V173.333C83.3334 178.856 87.8109 183.333 93.3334 183.333H140V176.667H93.3334C91.4926 176.667 90 175.174 90 173.333V170H140V163.333H90V73.3333C90 71.4924 91.4926 69.9999 93.3334 69.9999H166.667C168.508 69.9999 170 71.4924 170 73.3333V89.9999H176.667Z" fill="#E96111"/>
<path d="M100 76.6667H110V83.3334H100V76.6667Z" fill="#E96111"/>
<path d="M116.667 76.6667H126.667V83.3334H116.667V76.6667Z" fill="#E96111"/>
<path d="M133.333 76.6667H143.333V83.3334H133.333V76.6667Z" fill="#E96111"/>
<path d="M150 76.6667H160V83.3334H150V76.6667Z" fill="#E96111"/>
<path d="M103.333 96.6667H146.667V90H100C98.1591 90 96.6666 91.4925 96.6666 93.3333V116.667C96.6666 118.507 98.1591 120 100 120H140V113.333H103.333V96.6667Z" fill="#E96111"/>
<path d="M140 133.333V126.667H100C98.1591 126.667 96.6666 128.159 96.6666 130V153.333C96.6666 155.174 98.1591 156.667 100 156.667H140V150H103.333V133.333H140Z" fill="#E96111"/>
<path d="M190 96.6667H156.667C151.144 96.6667 146.667 101.144 146.667 106.667V173.333C146.667 178.856 151.144 183.333 156.667 183.333H190C195.522 183.333 200 178.856 200 173.333V106.667C200 101.144 195.522 96.6667 190 96.6667ZM193.333 173.333C193.333 175.174 191.841 176.667 190 176.667H156.667C154.826 176.667 153.333 175.174 153.333 173.333V170H193.333V173.333ZM193.333 163.333H153.333V106.667C153.333 104.826 154.826 103.333 156.667 103.333H190C191.841 103.333 193.333 104.826 193.333 106.667V163.333Z" fill="#E96111"/>
<path d="M183.333 110H163.333C161.493 110 160 111.493 160 113.333V126.667C160 128.507 161.493 130 163.333 130H183.333C185.174 130 186.667 128.507 186.667 126.667V113.333C186.667 111.493 185.174 110 183.333 110ZM180 123.333H166.667V116.667H180V123.333Z" fill="#E96111"/>
<path d="M183.333 136.667H163.333C161.493 136.667 160 138.159 160 140V153.333C160 155.174 161.493 156.667 163.333 156.667H183.333C185.174 156.667 186.667 155.174 186.667 153.333V140C186.667 138.159 185.174 136.667 183.333 136.667ZM180 150H166.667V143.333H180V150Z" fill="#E96111"/>
</svg>
