<svg width="50" height="50" viewBox="0 0 50 50" fill="none" xmlns="http://www.w3.org/2000/svg">
<g clip-path="url(#clip0)">
<path d="M49.8271 16.2923L40.3238 4.19729C40.1702 4.00198 39.9354 3.88782 39.6869 3.88782H10.3132C10.0647 3.88782 9.8298 4.00198 9.67638 4.19729L0.173155 16.2923C-0.0646377 16.595 -0.0565322 17.0233 0.192491 17.3167L24.3825 45.8265C24.5364 46.0079 24.7622 46.1123 25.0001 46.1123C25.238 46.1123 25.4638 46.0078 25.6177 45.8265L49.8077 17.3167C50.0567 17.0233 50.0649 16.5949 49.8271 16.2923ZM38.5326 5.50764L35.0394 15.1656L26.7609 5.50764H38.5326V5.50764ZM33.6063 15.9828H16.3939L25 5.94231L33.6063 15.9828ZM23.2392 5.50764L14.9609 15.1656L11.4674 5.50764H23.2392V5.50764ZM10.0481 6.34612L13.5338 15.9828H2.47638L10.0481 6.34612ZM2.55939 17.6027H14.1196L22.7095 41.351L2.55939 17.6027ZM25 42.9213L15.8422 17.6027H34.1577L25 42.9213ZM27.2906 41.3509L35.8804 17.6027H47.4406L27.2906 41.3509ZM36.4662 15.9828L39.9519 6.34602L47.5236 15.9828H36.4662Z" fill="black"/>
</g>
<defs>
<clipPath id="clip0">
<rect width="50" height="50" fill="white"/>
</clipPath>
</defs>
</svg>
