<svg width="512" height="512" viewBox="0 0 512 512" fill="none" xmlns="http://www.w3.org/2000/svg">
<path d="M367.973 512C351.446 512 335.058 509.078 319.034 503.256C248.439 477.611 182.912 435.843 129.534 382.466C76.1559 329.089 34.3876 263.561 8.74369 192.966C0.503031 170.279 -1.92887 146.86 1.51799 123.357C4.74686 101.342 13.2745 79.9697 26.18 61.5505C39.1424 43.0502 56.4237 27.6629 76.1549 17.0523C97.1961 5.73776 120.162 0 144.417 0C151.961 0 158.481 5.27078 160.061 12.6465L185.174 129.841C186.311 135.147 184.68 140.669 180.844 144.507L137.932 187.417C178.413 267.9 244.098 333.585 324.581 374.066L367.491 331.154C371.329 327.318 376.852 325.689 382.157 326.824L499.352 351.937C506.728 353.517 511.998 360.037 511.998 367.581C511.998 391.836 506.26 414.803 494.945 435.844C484.334 455.575 468.947 472.857 450.447 485.819C432.028 498.725 410.656 507.252 388.64 510.481C381.741 511.494 374.844 511.999 367.973 512V512ZM131.634 32.6987C99.64 36.2305 71.2431 52.9998 52.3859 79.9137C31.1808 110.177 26.236 147.401 38.8195 182.042C88.1214 317.762 194.238 423.879 329.959 473.181C364.598 485.764 401.822 480.82 432.086 459.614C459 440.757 475.77 412.36 479.301 380.366L383.964 359.937L339.15 404.751C334.381 409.52 327.136 410.787 321.034 407.919C225.848 363.201 148.799 286.152 104.081 190.966C101.214 184.863 102.48 177.618 107.249 172.85L152.063 128.036L131.634 32.6987Z" fill="white"/>
</svg>
