<svg width="480" height="480" viewBox="0 0 480 480" fill="none" xmlns="http://www.w3.org/2000/svg">
<path d="M320 40H160V56H320V40Z" fill="#E96111"/>
<path d="M320 40H160V56H320V40Z" fill="#E96111"/>
<path d="M320 40H160V56H320V40Z" fill="#E96111"/>
<path d="M396 300C396 284.562 383.437 272 368 272H352V160H336V272H316C300.562 272 288 284.563 288 300C288 307.838 291.258 314.912 296.466 320C291.258 325.088 288 332.162 288 340C288 345.393 289.605 350.39 292.259 354.668C282.689 359.125 276 368.768 276 380C276 384.311 277.061 388.349 278.809 392H216C216 367.539 203.742 345.891 185.047 332.875C203.125 325.984 216 308.469 216 288C216 283.582 212.422 280 208 280H144V200H128V280C114.766 280 104 290.766 104 304V480H120V304C120 299.59 123.586 296 128 296H198.984C195.429 309.785 182.882 320 168 320H144C139.578 320 136 323.582 136 328C136 332.418 139.578 336 144 336C174.875 336 200 361.121 200 392V400C200 404.418 203.578 408 208 408H254.809C253.061 411.651 252 415.689 252 420C252 435.438 264.563 448 280 448V480H296V448H328H332C347.438 448 360 435.437 360 420C360 415.643 358.913 411.567 357.129 407.886C372.034 407.278 384 395.051 384 380C384 374.607 382.395 369.61 379.741 365.332C389.311 360.875 396 351.232 396 340C396 332.162 392.742 325.088 387.534 320C392.742 314.912 396 307.838 396 300ZM332 432H328H288H280C273.383 432 268 426.617 268 420C268 413.383 273.383 408 280 408H304H332C338.617 408 344 413.383 344 420C344 426.617 338.617 432 332 432ZM356 392H332H304C297.383 392 292 386.617 292 380C292 373.383 297.383 368 304 368H316H356C362.617 368 368 373.383 368 380C368 386.617 362.617 392 356 392ZM368 352H356H316C309.383 352 304 346.617 304 340C304 333.383 309.383 328 316 328H368C374.617 328 380 333.383 380 340C380 346.617 374.617 352 368 352ZM368 312H316C309.383 312 304 306.617 304 300C304 293.383 309.383 288 316 288H368C374.617 288 380 293.383 380 300C380 306.617 374.617 312 368 312Z" fill="#E96111"/>
<path d="M396 300C396 284.562 383.437 272 368 272H352V160H336V272H316C300.562 272 288 284.563 288 300C288 307.838 291.258 314.912 296.466 320C291.258 325.088 288 332.162 288 340C288 345.393 289.605 350.39 292.259 354.668C282.689 359.125 276 368.768 276 380C276 384.311 277.061 388.349 278.809 392H216C216 367.539 203.742 345.891 185.047 332.875C203.125 325.984 216 308.469 216 288C216 283.582 212.422 280 208 280H144V200H128V280C114.766 280 104 290.766 104 304V480H120V304C120 299.59 123.586 296 128 296H198.984C195.429 309.785 182.882 320 168 320H144C139.578 320 136 323.582 136 328C136 332.418 139.578 336 144 336C174.875 336 200 361.121 200 392V400C200 404.418 203.578 408 208 408H254.809C253.061 411.651 252 415.689 252 420C252 435.438 264.563 448 280 448V480H296V448H328H332C347.438 448 360 435.437 360 420C360 415.643 358.913 411.567 357.129 407.886C372.034 407.278 384 395.051 384 380C384 374.607 382.395 369.61 379.741 365.332C389.311 360.875 396 351.232 396 340C396 332.162 392.742 325.088 387.534 320C392.742 314.912 396 307.838 396 300ZM332 432H328H288H280C273.383 432 268 426.617 268 420C268 413.383 273.383 408 280 408H304H332C338.617 408 344 413.383 344 420C344 426.617 338.617 432 332 432ZM356 392H332H304C297.383 392 292 386.617 292 380C292 373.383 297.383 368 304 368H316H356C362.617 368 368 373.383 368 380C368 386.617 362.617 392 356 392ZM368 352H356H316C309.383 352 304 346.617 304 340C304 333.383 309.383 328 316 328H368C374.617 328 380 333.383 380 340C380 346.617 374.617 352 368 352ZM368 312H316C309.383 312 304 306.617 304 300C304 293.383 309.383 288 316 288H368C374.617 288 380 293.383 380 300C380 306.617 374.617 312 368 312Z" fill="#E96111"/>
<path d="M396 300C396 284.562 383.437 272 368 272H352V160H336V272H316C300.562 272 288 284.563 288 300C288 307.838 291.258 314.912 296.466 320C291.258 325.088 288 332.162 288 340C288 345.393 289.605 350.39 292.259 354.668C282.689 359.125 276 368.768 276 380C276 384.311 277.061 388.349 278.809 392H216C216 367.539 203.742 345.891 185.047 332.875C203.125 325.984 216 308.469 216 288C216 283.582 212.422 280 208 280H144V200H128V280C114.766 280 104 290.766 104 304V480H120V304C120 299.59 123.586 296 128 296H198.984C195.429 309.785 182.882 320 168 320H144C139.578 320 136 323.582 136 328C136 332.418 139.578 336 144 336C174.875 336 200 361.121 200 392V400C200 404.418 203.578 408 208 408H254.809C253.061 411.651 252 415.689 252 420C252 435.438 264.563 448 280 448V480H296V448H328H332C347.438 448 360 435.437 360 420C360 415.643 358.913 411.567 357.129 407.886C372.034 407.278 384 395.051 384 380C384 374.607 382.395 369.61 379.741 365.332C389.311 360.875 396 351.232 396 340C396 332.162 392.742 325.088 387.534 320C392.742 314.912 396 307.838 396 300ZM332 432H328H288H280C273.383 432 268 426.617 268 420C268 413.383 273.383 408 280 408H304H332C338.617 408 344 413.383 344 420C344 426.617 338.617 432 332 432ZM356 392H332H304C297.383 392 292 386.617 292 380C292 373.383 297.383 368 304 368H316H356C362.617 368 368 373.383 368 380C368 386.617 362.617 392 356 392ZM368 352H356H316C309.383 352 304 346.617 304 340C304 333.383 309.383 328 316 328H368C374.617 328 380 333.383 380 340C380 346.617 374.617 352 368 352ZM368 312H316C309.383 312 304 306.617 304 300C304 293.383 309.383 288 316 288H368C374.617 288 380 293.383 380 300C380 306.617 374.617 312 368 312Z" fill="#E96111"/>
<path d="M396 300C396 284.562 383.437 272 368 272H352V160H336V272H316C300.562 272 288 284.563 288 300C288 307.838 291.258 314.912 296.466 320C291.258 325.088 288 332.162 288 340C288 345.393 289.605 350.39 292.259 354.668C282.689 359.125 276 368.768 276 380C276 384.311 277.061 388.349 278.809 392H216C216 367.539 203.742 345.891 185.047 332.875C203.125 325.984 216 308.469 216 288C216 283.582 212.422 280 208 280H144V200H128V280C114.766 280 104 290.766 104 304V480H120V304C120 299.59 123.586 296 128 296H198.984C195.429 309.785 182.882 320 168 320H144C139.578 320 136 323.582 136 328C136 332.418 139.578 336 144 336C174.875 336 200 361.121 200 392V400C200 404.418 203.578 408 208 408H254.809C253.061 411.651 252 415.689 252 420C252 435.438 264.563 448 280 448V480H296V448H328H332C347.438 448 360 435.437 360 420C360 415.643 358.913 411.567 357.129 407.886C372.034 407.278 384 395.051 384 380C384 374.607 382.395 369.61 379.741 365.332C389.311 360.875 396 351.232 396 340C396 332.162 392.742 325.088 387.534 320C392.742 314.912 396 307.838 396 300ZM332 432H328H288H280C273.383 432 268 426.617 268 420C268 413.383 273.383 408 280 408H304H332C338.617 408 344 413.383 344 420C344 426.617 338.617 432 332 432ZM356 392H332H304C297.383 392 292 386.617 292 380C292 373.383 297.383 368 304 368H316H356C362.617 368 368 373.383 368 380C368 386.617 362.617 392 356 392ZM368 352H356H316C309.383 352 304 346.617 304 340C304 333.383 309.383 328 316 328H368C374.617 328 380 333.383 380 340C380 346.617 374.617 352 368 352ZM368 312H316C309.383 312 304 306.617 304 300C304 293.383 309.383 288 316 288H368C374.617 288 380 293.383 380 300C380 306.617 374.617 312 368 312Z" fill="#E96111"/>
<path d="M119.977 101.828C119.813 99.531 118.672 97.414 116.836 96.023L108.508 89.71C106.516 79.625 97.664 72 87.078 72C75.133 72 65.39 81.711 65.234 93.707C58.843 92.59 52.734 90.137 47.265 86.453L44.476 84.57C42.031 82.918 38.859 82.738 36.242 84.136C33.633 85.523 32 88.242 32 91.199V97.762C32 107.403 34.906 116.598 40.297 124.321L34.313 130.376C32.04 132.669 31.375 136.103 32.618 139.083C33.859 142.059 36.773 144 40 144H78.766C94.227 144 107.008 132.215 108.727 117.09L117.688 108.024C119.305 106.387 120.141 104.129 119.977 101.828ZM95.234 107.977C93.75 109.473 92.921 111.497 92.921 113.602C92.921 121.54 86.569 128 78.765 128H58.414C59.68 125.086 59.133 121.57 56.766 119.176C53.032 115.395 50.36 110.637 49.008 105.508C56.641 108.727 64.844 110.399 73.235 110.399C77.657 110.399 81.235 106.817 81.235 102.399V94C81.235 90.691 83.86 88 87.079 88C90.298 88 92.923 90.691 92.923 94C92.923 96.504 94.095 98.863 96.087 100.375L99.9 103.262L95.234 107.977Z" fill="#E96111"/>
<path d="M264 136V120H240C235.578 120 232 123.582 232 128V152H216V168H232V200H248V168H264V152H248V136H264Z" fill="#E96111"/>
<path d="M288 88H192C178.766 88 168 98.766 168 112V208C168 221.234 178.766 232 192 232H288C301.234 232 312 221.234 312 208V112C312 98.766 301.234 88 288 88ZM296 208C296 212.41 292.414 216 288 216H192C187.586 216 184 212.41 184 208V112C184 107.59 187.586 104 192 104H288C292.414 104 296 107.59 296 112V208Z" fill="#E96111"/>
<path d="M120 40H24C10.766 40 0 50.766 0 64V160C0 173.234 10.766 184 24 184H120C133.234 184 144 173.234 144 160V64C144 50.766 133.234 40 120 40ZM128 160C128 164.41 124.414 168 120 168H24C19.586 168 16 164.41 16 160V64C16 59.59 19.586 56 24 56H120C124.414 56 128 59.59 128 64V160Z" fill="#E96111"/>
<path d="M120 40H24C10.766 40 0 50.766 0 64V160C0 173.234 10.766 184 24 184H120C133.234 184 144 173.234 144 160V64C144 50.766 133.234 40 120 40ZM128 160C128 164.41 124.414 168 120 168H24C19.586 168 16 164.41 16 160V64C16 59.59 19.586 56 24 56H120C124.414 56 128 59.59 128 64V160Z" fill="#E96111"/>
<path d="M120 40H24C10.766 40 0 50.766 0 64V160C0 173.234 10.766 184 24 184H120C133.234 184 144 173.234 144 160V64C144 50.766 133.234 40 120 40ZM128 160C128 164.41 124.414 168 120 168H24C19.586 168 16 164.41 16 160V64C16 59.59 19.586 56 24 56H120C124.414 56 128 59.59 128 64V160Z" fill="#E96111"/>
<path d="M120 40H24C10.766 40 0 50.766 0 64V160C0 173.234 10.766 184 24 184H120C133.234 184 144 173.234 144 160V64C144 50.766 133.234 40 120 40ZM128 160C128 164.41 124.414 168 120 168H24C19.586 168 16 164.41 16 160V64C16 59.59 19.586 56 24 56H120C124.414 56 128 59.59 128 64V160Z" fill="#E96111"/>
<path d="M120 40H24C10.766 40 0 50.766 0 64V160C0 173.234 10.766 184 24 184H120C133.234 184 144 173.234 144 160V64C144 50.766 133.234 40 120 40ZM128 160C128 164.41 124.414 168 120 168H24C19.586 168 16 164.41 16 160V64C16 59.59 19.586 56 24 56H120C124.414 56 128 59.59 128 64V160Z" fill="#E96111"/>
<path d="M120 40H24C10.766 40 0 50.766 0 64V160C0 173.234 10.766 184 24 184H120C133.234 184 144 173.234 144 160V64C144 50.766 133.234 40 120 40ZM128 160C128 164.41 124.414 168 120 168H24C19.586 168 16 164.41 16 160V64C16 59.59 19.586 56 24 56H120C124.414 56 128 59.59 128 64V160Z" fill="#E96111"/>
<path d="M120 40H24C10.766 40 0 50.766 0 64V160C0 173.234 10.766 184 24 184H120C133.234 184 144 173.234 144 160V64C144 50.766 133.234 40 120 40ZM128 160C128 164.41 124.414 168 120 168H24C19.586 168 16 164.41 16 160V64C16 59.59 19.586 56 24 56H120C124.414 56 128 59.59 128 64V160Z" fill="#E96111"/>
<path d="M120 40H24C10.766 40 0 50.766 0 64V160C0 173.234 10.766 184 24 184H120C133.234 184 144 173.234 144 160V64C144 50.766 133.234 40 120 40ZM128 160C128 164.41 124.414 168 120 168H24C19.586 168 16 164.41 16 160V64C16 59.59 19.586 56 24 56H120C124.414 56 128 59.59 128 64V160Z" fill="#E96111"/>
<path d="M120 40H24C10.766 40 0 50.766 0 64V160C0 173.234 10.766 184 24 184H120C133.234 184 144 173.234 144 160V64C144 50.766 133.234 40 120 40ZM128 160C128 164.41 124.414 168 120 168H24C19.586 168 16 164.41 16 160V64C16 59.59 19.586 56 24 56H120C124.414 56 128 59.59 128 64V160Z" fill="#E96111"/>
<g opacity="0.9">
<path d="M120 40H24C10.766 40 0 50.766 0 64V160C0 173.234 10.766 184 24 184H120C133.234 184 144 173.234 144 160V64C144 50.766 133.234 40 120 40ZM128 160C128 164.41 124.414 168 120 168H24C19.586 168 16 164.41 16 160V64C16 59.59 19.586 56 24 56H120C124.414 56 128 59.59 128 64V160Z" fill="#E96111"/>
</g>
<path d="M456 0H360C346.766 0 336 10.766 336 24V120C336 133.234 346.766 144 360 144H456C469.234 144 480 133.234 480 120V24C480 10.766 469.234 0 456 0ZM464 120C464 124.41 460.414 128 456 128H360C355.586 128 352 124.41 352 120V80H368.809C372.526 98.234 388.685 112 408 112C427.315 112 443.474 98.234 447.191 80H464V120ZM384 72C384 58.766 394.766 48 408 48C421.234 48 432 58.766 432 72C432 85.234 421.234 96 408 96C394.766 96 384 85.234 384 72ZM464 64H447.191C443.474 45.766 427.315 32 408 32C388.685 32 372.526 45.766 368.809 64H352V24C352 19.59 355.586 16 360 16H456C460.414 16 464 19.59 464 24V64Z" fill="#E96111"/>
<path d="M456 0H360C346.766 0 336 10.766 336 24V120C336 133.234 346.766 144 360 144H456C469.234 144 480 133.234 480 120V24C480 10.766 469.234 0 456 0ZM464 120C464 124.41 460.414 128 456 128H360C355.586 128 352 124.41 352 120V80H368.809C372.526 98.234 388.685 112 408 112C427.315 112 443.474 98.234 447.191 80H464V120ZM384 72C384 58.766 394.766 48 408 48C421.234 48 432 58.766 432 72C432 85.234 421.234 96 408 96C394.766 96 384 85.234 384 72ZM464 64H447.191C443.474 45.766 427.315 32 408 32C388.685 32 372.526 45.766 368.809 64H352V24C352 19.59 355.586 16 360 16H456C460.414 16 464 19.59 464 24V64Z" fill="#E96111"/>
<path d="M456 0H360C346.766 0 336 10.766 336 24V120C336 133.234 346.766 144 360 144H456C469.234 144 480 133.234 480 120V24C480 10.766 469.234 0 456 0ZM464 120C464 124.41 460.414 128 456 128H360C355.586 128 352 124.41 352 120V80H368.809C372.526 98.234 388.685 112 408 112C427.315 112 443.474 98.234 447.191 80H464V120ZM384 72C384 58.766 394.766 48 408 48C421.234 48 432 58.766 432 72C432 85.234 421.234 96 408 96C394.766 96 384 85.234 384 72ZM464 64H447.191C443.474 45.766 427.315 32 408 32C388.685 32 372.526 45.766 368.809 64H352V24C352 19.59 355.586 16 360 16H456C460.414 16 464 19.59 464 24V64Z" fill="#E96111"/>
<path d="M456 0H360C346.766 0 336 10.766 336 24V120C336 133.234 346.766 144 360 144H456C469.234 144 480 133.234 480 120V24C480 10.766 469.234 0 456 0ZM464 120C464 124.41 460.414 128 456 128H360C355.586 128 352 124.41 352 120V80H368.809C372.526 98.234 388.685 112 408 112C427.315 112 443.474 98.234 447.191 80H464V120ZM384 72C384 58.766 394.766 48 408 48C421.234 48 432 58.766 432 72C432 85.234 421.234 96 408 96C394.766 96 384 85.234 384 72ZM464 64H447.191C443.474 45.766 427.315 32 408 32C388.685 32 372.526 45.766 368.809 64H352V24C352 19.59 355.586 16 360 16H456C460.414 16 464 19.59 464 24V64Z" fill="#E96111"/>
<path d="M456 0H360C346.766 0 336 10.766 336 24V120C336 133.234 346.766 144 360 144H456C469.234 144 480 133.234 480 120V24C480 10.766 469.234 0 456 0ZM464 120C464 124.41 460.414 128 456 128H360C355.586 128 352 124.41 352 120V80H368.809C372.526 98.234 388.685 112 408 112C427.315 112 443.474 98.234 447.191 80H464V120ZM384 72C384 58.766 394.766 48 408 48C421.234 48 432 58.766 432 72C432 85.234 421.234 96 408 96C394.766 96 384 85.234 384 72ZM464 64H447.191C443.474 45.766 427.315 32 408 32C388.685 32 372.526 45.766 368.809 64H352V24C352 19.59 355.586 16 360 16H456C460.414 16 464 19.59 464 24V64Z" fill="#E96111"/>
<path d="M456 0H360C346.766 0 336 10.766 336 24V120C336 133.234 346.766 144 360 144H456C469.234 144 480 133.234 480 120V24C480 10.766 469.234 0 456 0ZM464 120C464 124.41 460.414 128 456 128H360C355.586 128 352 124.41 352 120V80H368.809C372.526 98.234 388.685 112 408 112C427.315 112 443.474 98.234 447.191 80H464V120ZM384 72C384 58.766 394.766 48 408 48C421.234 48 432 58.766 432 72C432 85.234 421.234 96 408 96C394.766 96 384 85.234 384 72ZM464 64H447.191C443.474 45.766 427.315 32 408 32C388.685 32 372.526 45.766 368.809 64H352V24C352 19.59 355.586 16 360 16H456C460.414 16 464 19.59 464 24V64Z" fill="#E96111"/>
<path d="M248 328H232V344H248V328Z" fill="#E96111"/>
</svg>
